<svg id="SvgjsSvg1001" width="288" height="288"
    xmlns="http://www.w3.org/2000/svg" version="1.1"
    xmlns:xlink="http://www.w3.org/1999/xlink"
    xmlns:svgjs="http://svgjs.com/svgjs">
    <path id="SvgjsPath1013" d="M 144,0 C 5,0 0,5 0,144 0,283 5,288 144,288 283,288 288,283 288,144 288,5 283,0 144,0 Z" transform="matrix(1,0,0,1,0,0)" fill="red"></path>
    <defs id="SvgjsDefs1002"></defs>
    <g id="SvgjsG1008" transform="matrix(1,0,0,1,0,0)">
        <!--?xml version="1.0"?-->
        <svg
            xmlns="http://www.w3.org/2000/svg" height="288" viewBox="0 0 48 48" width="288">
            <path d="M0 0h48v48h-48zm0 0h48v48h-48z" fill="none"></path>
            <path d="M8 22v4h16v-4h-16zm30 14h-4v-21.25l-6 2.05v-3.4l9.4-3.4h.6v26z" fill="black" class="color000 svgShape"></path>
            <metadata>
                <rdf:rdf
                    xmlns:rdf="http://www.w3.org/1999/02/22-rdf-syntax-ns#"
                    xmlns:rdfs="http://www.w3.org/2000/01/rdf-schema#"
                    xmlns:dc="http://purl.org/dc/elements/1.1/">
                    <rdf:description about="https://iconscout.com/legal#licenses" dc:title="Exposure, Setting, Display, Minus, One" dc:description="Exposure, Setting, Display, Minus, One" dc:publisher="Iconscout" dc:date="2016-12-14" dc:format="image/svg+xml" dc:language="en">
                        <dc:creator>
                            <rdf:bag>
                                <rdf:li>Google Inc.</rdf:li>
                            </rdf:bag>
                        </dc:creator>
                    </rdf:description>
                </rdf:rdf>
            </metadata>
        </svg>
    </g>
</svg>