<svg id="SvgjsSvg1014" width="288" height="288"
    xmlns="http://www.w3.org/2000/svg" version="1.1"
    xmlns:xlink="http://www.w3.org/1999/xlink"
    xmlns:svgjs="http://svgjs.com/svgjs">
    <path id="SvgjsPath1020" d="M 144,0 C 5,0 0,5 0,144 0,283 5,288 144,288 283,288 288,283 288,144 288,5 283,0 144,0 Z" transform="matrix(1,0,0,1,0,0)" fill="green"></path>
    <defs id="SvgjsDefs1015"></defs>
    <g id="SvgjsG1016" transform="matrix(1,0,0,1,0,0)">
        <!--?xml version="1.0"?-->
        <svg
            xmlns="http://www.w3.org/2000/svg" height="288" viewBox="0 0 48 48" width="288">
            <path d="M0 0h48v48h-48zm0 0h48v48h-48z" fill="none"></path>
            <path d="M32.09 32.58l5.73-6.13c.75-.79 1.44-1.57 2.08-2.35.63-.78 1.18-1.56 1.64-2.33.46-.78.82-1.55 1.07-2.33.26-.78.39-1.57.39-2.37 0-1.07-.18-2.04-.54-2.92-.36-.87-.88-1.62-1.57-2.23-.69-.61-1.53-1.08-2.53-1.42-1-.33-2.14-.5-3.42-.5-1.38 0-2.62.21-3.7.64-1.08.43-1.99 1.01-2.73 1.75s-1.3 1.61-1.68 2.6c-.36.94-.54 1.95-.56 3.01h4.28c.01-.62.09-1.21.26-1.74.18-.58.45-1.08.81-1.5.36-.42.81-.74 1.35-.98.55-.23 1.19-.35 1.93-.35.61 0 1.15.1 1.62.31.47.21.87.49 1.19.85.32.36.57.8.74 1.29.17.5.25 1.04.25 1.63 0 .43-.06.87-.17 1.3-.11.43-.3.9-.58 1.4-.28.5-.65 1.05-1.11 1.66-.46.6-1.05 1.29-1.75 2.07l-8.35 9.11v2.95h17.26v-3.42h-11.91zm-16.09-18.58h-4v8h-8v4h8v8h4v-8h8v-4h-8v-8z" fill="black" class="color000 svgShape"></path>
            <metadata>
                <rdf:rdf
                    xmlns:rdf="http://www.w3.org/1999/02/22-rdf-syntax-ns#"
                    xmlns:rdfs="http://www.w3.org/2000/01/rdf-schema#"
                    xmlns:dc="http://purl.org/dc/elements/1.1/">
                    <rdf:description about="https://iconscout.com/legal#licenses" dc:title="Exposure, Plus, Two, Edit" dc:description="Exposure, Plus, Two, Edit" dc:publisher="Iconscout" dc:date="2016-12-14" dc:format="image/svg+xml" dc:language="en">
                        <dc:creator>
                            <rdf:bag>
                                <rdf:li>Google Inc.</rdf:li>
                            </rdf:bag>
                        </dc:creator>
                    </rdf:description>
                </rdf:rdf>
            </metadata>
        </svg>
    </g>
</svg>